info, sample, subs
 
http://www.btarena.org/movies/dvdrip/cop-out-dvdrip-xvid-arrow







Sample/arw-cop.out.dvdrip.xvid-sample.avi
Format                           : AVI
Format/Info                      : Audio Video Interleave
File size                        : 7.97 MiB
Duration                         : 1mn 1s
Overall bit rate                 : 1 092 Kbps
Writing application              : VirtualDubMod 1.5.10.2 (build 2542/release)
Writing library                  : VirtualDubMod build 2542/release

Video
ID                               : 0
Format                           : MPEG-4 Visual
Format profile                   : Advanced Simple@L5
Format settings, BVOP            : Yes
Format settings, QPel            : No
Format settings, GMC             : No warppoints
Format settings, Matrix          : Default (H.263)
Codec ID                         : XVID
Codec ID/Hint                    : XviD
Duration                         : 1mn 1s
Bit rate                         : 937 Kbps
Width                            : 640 pixels
Height                           : 272 pixels
Display aspect ratio             : 2.35:1
Frame rate                       : 23.976 fps
Resolution                       : 8 bits
Colorimetry                      : 4:2:0
Scan type                        : Progressive
Bits/(Pixel*Frame)               : 0.224
Stream size                      : 6.84 MiB (86%)
Writing library                  : XviD 1.2.1 (UTC 2008-12-04)

Audio
ID                               : 1
Format                           : MPEG Audio
Format version                   : Version 1
Format profile                   : Layer 3
Format_Settings_Mode             : Joint stereo
Format_Settings_ModeExtension    : MS Stereo
Codec ID                         : 55
Codec ID/Hint                    : MP3
Duration                         : 1mn 1s
Bit rate mode                    : Variable
Bit rate                         : 139 Kbps
Channel(s)                       : 2 channels
Sampling rate                    : 48.0 KHz
Stream size                      : 1.03 MiB (13%)
Alignment                        : Aligned on interleaves
Interleave, duration             : 24 ms (0.58 video frame)
Interleave, preload duration     : 515 ms




Plot:
A comedy about a veteran NYPD cop whose rare baseball card is stolen. Since it's his only hope to pay for his daughter's upcoming wedding, he recruits his partner to track down the thief, a memorabilia-obsessed gangster. 

